<svg width="2738" height="3379" viewBox="0 0 2738 3379" fill="none" xmlns="http://www.w3.org/2000/svg">
<path d="M2130 2430.5C2330.67 2418.83 2711.3 2124.21 2080.5 1529C1539.46 1018.48 1077.22 621.084 735 513.428C690.435 499.408 530.404 479.302 490 475.5C334.833 446 -1.61836e-05 373.349 0 304.5C2.5034e-05 198 198 -6.10352e-05 467 0C1606.6 0.000258571 2187.17 284.667 2335 427C2505 572.5 2636 1106 2665 1251.5C2694 1397 2764 1626 2726.5 2108C2705.72 2375.06 2687.55 2555.71 2636.53 2719.5C2602.85 2818.5 2502.8 3049.2 2372 3180C2208.5 3343.5 1899 3365 1184.5 3378C612.9 3388.4 261 2988.33 156.5 2787C17.5 2460.5 327.5 1732 803 2096C1183.4 2387.2 1846.17 2440.33 2130 2430.5Z" fill="#E3E4F1"/>
</svg>
